<svg width="18" height="19" viewBox="0 0 18 19" fill="none" xmlns="http://www.w3.org/2000/svg">
<path d="M9 0.5C9.5523 0.5 10 0.94771 10 1.5V7.5C10 8.0523 9.5523 8.5 9 8.5H1C0.44772 8.5 0 8.0523 0 7.5V1.5C0 0.94772 0.44772 0.5 1 0.5H9ZM17 0.5C17.5523 0.5 18 0.94771 18 1.5V7.5C18 8.0523 17.5523 8.5 17 8.5H13C12.4477 8.5 12 8.0523 12 7.5V1.5C12 0.94771 12.4477 0.5 13 0.5H17ZM17 10.5C17.5523 10.5 18 10.9477 18 11.5V17.5C18 18.0523 17.5523 18.5 17 18.5H9C8.4477 18.5 8 18.0523 8 17.5V11.5C8 10.9477 8.4477 10.5 9 10.5H17ZM0 11.5C0 10.9477 0.44772 10.5 1 10.5H5C5.55229 10.5 6 10.9477 6 11.5V17.5C6 18.0523 5.55229 18.5 5 18.5H1C0.44772 18.5 0 18.0523 0 17.5V11.5Z" fill="black"/>
</svg>
