<svg width="153" height="153" viewBox="0 0 153 153" fill="none" xmlns="http://www.w3.org/2000/svg">
<path d="M117.141 0H35.8594C16.0548 0 0 16.0548 0 35.8594V117.141C0 136.945 16.0548 153 35.8594 153H117.141C136.945 153 153 136.945 153 117.141V35.8594C153 16.0548 136.945 0 117.141 0Z" fill="url(#paint0_radial_687_274)"/>
<path d="M117.141 0H35.8594C16.0548 0 0 16.0548 0 35.8594V117.141C0 136.945 16.0548 153 35.8594 153H117.141C136.945 153 153 136.945 153 117.141V35.8594C153 16.0548 136.945 0 117.141 0Z" fill="url(#paint1_radial_687_274)"/>
<path d="M76.5054 16.7344C60.2742 16.7344 58.2368 16.8055 51.8622 17.0954C45.4996 17.387 41.1564 18.3941 37.3565 19.8721C33.4251 21.3985 30.0908 23.4407 26.769 26.7636C23.4443 30.086 21.4021 33.4203 19.8709 37.3499C18.3887 41.151 17.3804 45.496 17.0942 51.8556C16.8091 58.2308 16.7344 60.2689 16.7344 76.5006C16.7344 92.7323 16.8061 94.7632 17.0954 101.138C17.3882 107.5 18.3953 111.844 19.8721 115.643C21.3997 119.575 23.4419 122.909 26.7648 126.231C30.086 129.556 33.4203 131.603 37.3487 133.129C41.1516 134.607 45.4954 135.614 51.8568 135.906C58.232 136.196 60.2677 136.267 76.4982 136.267C92.7311 136.267 94.762 136.196 101.137 135.906C107.499 135.614 111.847 134.607 115.65 133.129C119.58 131.603 122.909 129.556 126.23 126.231C129.555 122.909 131.596 119.575 133.128 115.645C134.597 111.844 135.606 107.499 135.905 101.139C136.191 94.7644 136.266 92.7323 136.266 76.5006C136.266 60.2689 136.191 58.232 135.905 51.8568C135.606 45.4942 134.597 41.1516 133.128 37.3517C131.596 33.4203 129.555 30.086 126.23 26.7636C122.906 23.4395 119.581 21.3973 115.646 19.8727C111.836 18.3941 107.491 17.3864 101.128 17.0954C94.753 16.8055 92.7234 16.7344 76.4869 16.7344H76.5054ZM71.1438 27.5047C72.7354 27.5023 74.511 27.5047 76.5054 27.5047C92.4634 27.5047 94.3544 27.5621 100.656 27.8484C106.483 28.1149 109.646 29.0885 111.753 29.9067C114.542 30.9897 116.53 32.2848 118.621 34.3772C120.713 36.469 122.007 38.461 123.093 41.2502C123.911 43.354 124.886 46.5168 125.152 52.3439C125.438 58.6444 125.5 60.5366 125.5 76.4869C125.5 92.4371 125.438 94.3299 125.152 100.63C124.885 106.457 123.911 109.62 123.093 111.724C122.01 114.513 120.713 116.499 118.621 118.59C116.529 120.682 114.543 121.976 111.753 123.06C109.648 123.882 106.483 124.853 100.656 125.119C94.3556 125.406 92.4634 125.468 76.5054 125.468C60.5468 125.468 58.6552 125.406 52.3553 125.119C46.5281 124.85 43.3653 123.877 41.2568 123.059C38.4681 121.975 36.4756 120.681 34.3838 118.589C32.292 116.497 30.9974 114.51 29.9115 111.719C29.0933 109.615 28.1185 106.452 27.8532 100.625C27.5669 94.3245 27.5095 92.4323 27.5095 76.4719C27.5095 60.5115 27.5669 58.6295 27.8532 52.329C28.1197 46.5018 29.0933 43.339 29.9115 41.2323C30.9951 38.443 32.292 36.4511 34.3844 34.3593C36.4768 32.2675 38.4681 30.9723 41.2574 29.887C43.3641 29.0652 46.5281 28.094 52.3553 27.8263C57.8687 27.5771 60.0053 27.5023 71.1438 27.4898V27.5047ZM108.408 37.4282C104.449 37.4282 101.236 40.6376 101.236 44.5977C101.236 48.5572 104.449 51.7696 108.408 51.7696C112.368 51.7696 115.58 48.5572 115.58 44.5977C115.58 40.6382 112.368 37.4258 108.408 37.4258V37.4282ZM76.5054 45.808C59.5558 45.808 45.8133 59.5505 45.8133 76.5006C45.8133 93.4507 59.5558 107.187 76.5054 107.187C93.4555 107.187 107.193 93.4507 107.193 76.5006C107.193 59.5511 93.4543 45.808 76.5042 45.808H76.5054ZM76.5054 56.5783C87.5076 56.5783 96.4277 65.4972 96.4277 76.5006C96.4277 87.5029 87.5076 96.4229 76.5054 96.4229C65.5031 96.4229 56.5837 87.5029 56.5837 76.5006C56.5837 65.4972 65.5025 56.5783 76.5054 56.5783Z" fill="white"/>
<defs>
<radialGradient id="paint0_radial_687_274" cx="0" cy="0" r="1" gradientUnits="userSpaceOnUse" gradientTransform="translate(40.6406 164.784) rotate(-90) scale(151.634 141.032)">
<stop stop-color="#FFDD55"/>
<stop offset="0.1" stop-color="#FFDD55"/>
<stop offset="0.5" stop-color="#FF543E"/>
<stop offset="1" stop-color="#C837AB"/>
</radialGradient>
<radialGradient id="paint1_radial_687_274" cx="0" cy="0" r="1" gradientUnits="userSpaceOnUse" gradientTransform="translate(-25.6281 11.0214) rotate(78.681) scale(67.7814 279.397)">
<stop stop-color="#3771C8"/>
<stop offset="0.128" stop-color="#3771C8"/>
<stop offset="1" stop-color="#6600FF" stop-opacity="0"/>
</radialGradient>
</defs>
</svg>
