<svg width="22" height="23" viewBox="0 0 22 23" fill="none" xmlns="http://www.w3.org/2000/svg">
<path d="M7.68637 3.50008L10.293 0.893483C10.6835 0.502953 11.3167 0.502953 11.7072 0.893483L14.3138 3.50008H18.0001C18.5524 3.50008 19.0001 3.9478 19.0001 4.50008V8.18637L21.6067 10.793C21.9972 11.1835 21.9972 11.8167 21.6067 12.2072L19.0001 14.8138V18.5001C19.0001 19.0524 18.5524 19.5001 18.0001 19.5001H14.3138L11.7072 22.1067C11.3167 22.4972 10.6835 22.4972 10.293 22.1067L7.68637 19.5001H4.00008C3.4478 19.5001 3.00008 19.0524 3.00008 18.5001V14.8138L0.393483 12.2072C0.00295344 11.8167 0.00295344 11.1835 0.393483 10.793L3.00008 8.18637V4.50008C3.00008 3.9478 3.4478 3.50008 4.00008 3.50008H7.68637ZM5.00008 5.50008V9.0148L2.5148 11.5001L5.00008 13.9854V17.5001H8.5148L11.0001 19.9854L13.4854 17.5001H17.0001V13.9854L19.4854 11.5001L17.0001 9.0148V5.50008H13.4854L11.0001 3.0148L8.5148 5.50008H5.00008ZM11.0001 15.5001C8.79094 15.5001 7.00008 13.7092 7.00008 11.5001C7.00008 9.29094 8.79094 7.50008 11.0001 7.50008C13.2092 7.50008 15.0001 9.29094 15.0001 11.5001C15.0001 13.7092 13.2092 15.5001 11.0001 15.5001ZM11.0001 13.5001C12.1047 13.5001 13.0001 12.6047 13.0001 11.5001C13.0001 10.3955 12.1047 9.5001 11.0001 9.5001C9.8955 9.5001 9.0001 10.3955 9.0001 11.5001C9.0001 12.6047 9.8955 13.5001 11.0001 13.5001Z" fill="black"/>
</svg>
