<svg width="183" height="185" viewBox="0 0 183 185" fill="none" xmlns="http://www.w3.org/2000/svg">
<path d="M3.90282 91.1113C3.89853 106.607 7.94741 121.737 15.6463 135.073L3.16653 180.639L49.7972 168.412C62.6947 175.433 77.1453 179.112 91.83 179.114H91.8686C140.346 179.114 179.807 139.666 179.828 91.1806C179.837 67.6858 170.696 45.5929 154.087 28.9713C137.481 12.3512 115.396 3.19334 91.8651 3.18262C43.3822 3.18262 3.92355 42.6277 3.90354 91.1113" fill="url(#paint0_linear_687_264)"/>
<path d="M0.764883 91.0825C0.759879 107.136 4.95387 122.807 12.9272 136.621L0 183.82L48.3027 171.155C61.6117 178.411 76.5962 182.237 91.8438 182.243H91.8832C142.1 182.243 182.979 141.377 183 91.1554C183.009 66.8164 173.538 43.9293 156.336 26.7123C139.132 9.49741 116.257 0.0100078 91.8832 0C41.6582 0 0.784898 40.8605 0.764883 91.0825ZM29.5309 134.242L27.7274 131.379C20.1457 119.324 16.144 105.393 16.1497 91.0882C16.1655 49.345 50.1377 15.3834 91.9118 15.3834C112.142 15.392 131.154 23.2782 145.454 37.5865C159.753 51.8962 167.621 70.9182 167.616 91.1497C167.597 132.893 133.624 166.859 91.8832 166.859H91.8531C78.2618 166.852 64.9321 163.202 53.3073 156.304L50.5409 154.664L21.8771 162.179L29.5309 134.242Z" fill="url(#paint1_linear_687_264)"/>
<path d="M69.108 53.0043C67.4023 49.2135 65.6074 49.137 63.9854 49.0705C62.6572 49.0134 61.1389 49.0177 59.622 49.0177C58.1037 49.0177 55.6367 49.5888 53.5515 51.8656C51.4642 54.1445 45.5825 59.6517 45.5825 70.8526C45.5825 82.0534 53.741 92.879 54.8783 94.3995C56.017 95.9171 70.6284 119.638 93.7694 128.764C113.002 136.348 116.915 134.84 121.089 134.459C125.264 134.08 134.56 128.954 136.456 123.637C138.354 118.322 138.354 113.765 137.785 112.813C137.216 111.865 135.698 111.295 133.421 110.157C131.144 109.019 119.951 103.51 117.864 102.75C115.777 101.991 114.259 101.612 112.741 103.892C111.222 106.168 106.862 111.295 105.534 112.813C104.206 114.335 102.877 114.524 100.601 113.386C98.3229 112.243 90.9908 109.842 82.2918 102.087C75.5237 96.0522 70.9544 88.6 69.6262 86.3203C68.298 84.0443 69.484 82.8105 70.6256 81.676C71.6485 80.6559 72.9031 79.0175 74.0425 77.6886C75.1777 76.359 75.5566 75.4104 76.3157 73.8921C77.0756 72.3723 76.6953 71.0427 76.127 69.904C75.5566 68.7652 71.1324 57.5057 69.108 53.0043Z" fill="white"/>
<defs>
<linearGradient id="paint0_linear_687_264" x1="8836.24" y1="17748.8" x2="8836.24" y2="3.18262" gradientUnits="userSpaceOnUse">
<stop stop-color="#1FAF38"/>
<stop offset="1" stop-color="#60D669"/>
</linearGradient>
<linearGradient id="paint1_linear_687_264" x1="9150" y1="18382" x2="9150" y2="0" gradientUnits="userSpaceOnUse">
<stop stop-color="#F9F9F9"/>
<stop offset="1" stop-color="white"/>
</linearGradient>
</defs>
</svg>
